<svg id="Layer_1" data-name="Layer 1" xmlns="http://www.w3.org/2000/svg" viewBox="0 0 319 319"><defs><style>.cls-1{fill:#fff;}.cls-2{fill:#e84970;}</style></defs><circle class="cls-1" cx="159.5" cy="159.5" r="159.5"/><path d="M151,106.68H79.44l39.33-41.62Z"/><path class="cls-2" d="M151,106.68H79.44l39.33-41.62Z"/><path d="M118.29,115.62H76L151.67,279Z"/><path class="cls-2" d="M118.29,115.62H76L151.67,279Z"/><path d="M192.94,115.62H127.25l33,159.94Z"/><path class="cls-2" d="M192.94,115.62H127.25l33,159.94Z"/><path d="M201.91,115.62h42.28L168.52,279Z"/><path class="cls-2" d="M201.91,115.62h42.28L168.52,279Z"/><path d="M128.28,63h63.29l-31.28,41.62Z"/><path class="cls-2" d="M128.28,63h63.29l-31.28,41.62Z"/><path d="M240.75,106.68H169.21l32.21-41.62Z"/><path class="cls-2" d="M240.75,106.68H169.21l32.21-41.62Z"/></svg>